<svg width="24" height="24" viewBox="0 0 24 24" fill="none" xmlns="http://www.w3.org/2000/svg">
<path d="M12.816 7.85729C13.5948 7.07397 14.8574 7.07397 15.6362 7.85729L16.0492 8.27271C16.828 9.05603 16.828 10.326 16.0492 11.1094L8.0921 19.1129C8.01471 19.1907 7.9251 19.2552 7.82688 19.3038L4.24144 21.0764C3.38765 21.4985 2.48711 20.5927 2.90677 19.7339L4.66911 16.1276C4.71739 16.0288 4.78151 15.9386 4.8589 15.8608L12.816 7.85729Z" fill="white"/>
<path d="M21.7198 11.7066C20.4605 13.0258 17.2798 12.0093 14.6155 9.43617C11.9512 6.86305 10.8123 3.70773 12.0715 2.38856C13.3308 1.0694 16.5115 2.08592 19.1758 4.65904C21.8401 7.23216 22.9791 10.3875 21.7198 11.7066Z" fill="white"/>
</svg>
