<svg width="24" height="24" viewBox="0 0 24 24" fill="none" xmlns="http://www.w3.org/2000/svg">
<path d="M19.339 14.6917V19.1317C19.3388 19.7599 19.0891 20.3623 18.6449 20.8066C18.2007 21.2508 17.5983 21.5004 16.97 21.5007H5.36904C5.0568 21.5006 4.74765 21.4388 4.45938 21.3188C4.1711 21.1988 3.90937 21.023 3.68923 20.8016C3.46909 20.5802 3.29488 20.3174 3.17661 20.0284C3.05833 19.7395 2.99833 19.43 3.00004 19.1177V7.52971C2.99818 7.21796 3.05822 6.90894 3.17666 6.62056C3.29511 6.33218 3.46961 6.07017 3.69006 5.84972C3.9105 5.62928 4.17251 5.45478 4.46089 5.33633C4.74927 5.21789 5.05829 5.15785 5.37004 5.15971H9.80904" stroke="white" stroke-width="1.5" stroke-linecap="round" stroke-linejoin="round"/>
<path d="M19.339 9.2457L15.254 5.1597M7.08399 16.0537V13.8887C7.08599 13.5317 7.22799 13.1887 7.47899 12.9357L17.011 3.4037C17.1375 3.27581 17.2881 3.17427 17.454 3.10498C17.62 3.03568 17.7981 3 17.978 3C18.1579 3 18.3359 3.03568 18.5019 3.10498C18.6679 3.17427 18.8185 3.27581 18.945 3.4037L21.096 5.5547C21.2239 5.68118 21.3254 5.83177 21.3947 5.99776C21.464 6.16374 21.4997 6.34183 21.4997 6.5217C21.4997 6.70157 21.464 6.87965 21.3947 7.04564C21.3254 7.21163 21.2239 7.36222 21.096 7.4887L11.564 17.0207C11.3105 17.2724 10.9682 17.4143 10.611 17.4157H8.44599C8.26705 17.416 8.08982 17.3809 7.92446 17.3126C7.7591 17.2442 7.60884 17.1439 7.48232 17.0174C7.35579 16.8908 7.25548 16.7406 7.18713 16.5752C7.11877 16.4099 7.08372 16.2326 7.08399 16.0537Z" stroke="white" stroke-width="1.5" stroke-linecap="round" stroke-linejoin="round"/>
</svg>
