<svg width="24" height="24" viewBox="0 0 24 24" fill="none" xmlns="http://www.w3.org/2000/svg">
<path d="M15.1074 8.38916L15.5205 8.80468C16.0071 9.29426 16.0072 10.088 15.5205 10.5776L7.56325 18.5813C7.544 18.6006 7.52153 18.6163 7.49715 18.6284L3.91133 20.4013C3.69799 20.5066 3.47343 20.2807 3.57808 20.0661L5.3407 16.4593C5.35272 16.4348 5.3683 16.4122 5.38752 16.3928L13.3448 8.38916C13.8315 7.89958 14.6207 7.89958 15.1074 8.38916Z" stroke="white" stroke-width="1.5"/>
<path d="M18.4856 5.38266C19.7315 6.58603 20.5838 7.89278 20.9817 8.99485C21.4038 10.1641 21.2221 10.7792 21.0006 11.0116C20.779 11.2437 20.175 11.452 18.9958 11.0751C17.8849 10.72 16.5522 9.9165 15.3062 8.71324C14.0601 7.50978 13.2073 6.20254 12.8094 5.10037C12.3871 3.9306 12.5695 3.31511 12.7911 3.08296C13.013 2.85093 13.6166 2.64339 14.7952 3.02008C15.9063 3.37521 17.2395 4.17917 18.4856 5.38266Z" stroke="white" stroke-width="2"/>
</svg>
